<svg width="32" height="32" viewBox="0 0 32 32" fill="none" xmlns="http://www.w3.org/2000/svg">
<path d="M22.75 27.6913L22.116 24.5932L21.058 23.7607L19.183 20.5131L18.317 21.0131L20.192 24.2607L20.384 25.5932L22.75 27.6913Z" fill="#EBF7FF"/>
<path d="M9.25 27.6913L11.616 25.5932L11.808 24.2607L13.683 21.0131L12.817 20.5131L10.942 23.7607L9.884 24.5932L9.25 27.6913Z" fill="#EBF7FF"/>
<path d="M2.5 16L5.5 17L6.75 16.5H10.5V15.5H6.75L5.5 15L2.5 16Z" fill="#EBF7FF"/>
<path d="M16 5C15.9343 5.00008 15.8693 4.98719 15.8086 4.96206C15.7479 4.93693 15.6928 4.90006 15.6465 4.85356L14.1465 3.35356C14.1 3.30713 14.0632 3.25201 14.0381 3.19134C14.0129 3.13068 14 3.06566 14 3C14 2.93434 14.0129 2.86932 14.0381 2.80865C14.0632 2.74799 14.1 2.69287 14.1465 2.64644C14.1929 2.6 14.248 2.56317 14.3087 2.53805C14.3693 2.51292 14.4344 2.49998 14.5 2.49998C14.5657 2.49998 14.6307 2.51292 14.6914 2.53805C14.752 2.56317 14.8071 2.6 14.8536 2.64644L16 3.79294L17.1465 2.64644C17.1929 2.6 17.248 2.56317 17.3087 2.53805C17.3693 2.51292 17.4344 2.49998 17.5 2.49998C17.5657 2.49998 17.6307 2.51292 17.6914 2.53805C17.752 2.56317 17.8071 2.6 17.8536 2.64644C17.9 2.69287 17.9368 2.74799 17.962 2.80865C17.9871 2.86932 18 2.93434 18 3C18 3.06566 17.9871 3.13068 17.962 3.19134C17.9368 3.25201 17.9 3.30713 17.8536 3.35356L16.3536 4.85356C16.3072 4.90006 16.2521 4.93693 16.1914 4.96206C16.1307 4.98719 16.0657 5.00008 16 5Z" fill="#EBF7FF"/>
<path d="M16 7.5C15.9343 7.50008 15.8693 7.48719 15.8086 7.46206C15.7479 7.43693 15.6928 7.40006 15.6465 7.35356L13.1465 4.85356C13.1 4.80713 13.0632 4.75201 13.0381 4.69134C13.0129 4.63068 13 4.56566 13 4.5C13 4.43434 13.0129 4.36932 13.0381 4.30865C13.0632 4.24799 13.1 4.19287 13.1465 4.14644C13.2402 4.05266 13.3674 3.99998 13.5 3.99998C13.5657 3.99998 13.6307 4.01292 13.6914 4.03805C13.752 4.06317 13.8071 4.1 13.8536 4.14644L16 6.29294L18.1465 4.14644C18.1929 4.1 18.248 4.06317 18.3087 4.03805C18.3693 4.01292 18.4344 3.99998 18.5 3.99998C18.5657 3.99998 18.6307 4.01292 18.6914 4.03805C18.752 4.06317 18.8072 4.1 18.8536 4.14644C18.9 4.19287 18.9368 4.24799 18.962 4.30865C18.9871 4.36932 19 4.43434 19 4.5C19 4.56566 18.9871 4.63068 18.962 4.69134C18.9368 4.75201 18.9 4.80713 18.8536 4.85356L16.3536 7.35356C16.3072 7.40006 16.2521 7.43693 16.1914 7.46206C16.1307 7.48719 16.0657 7.50008 16 7.5Z" fill="white"/>
<path d="M16 10C15.9343 10.0001 15.8693 9.98719 15.8086 9.96206C15.7479 9.93693 15.6928 9.90006 15.6465 9.85356L13.1465 7.35356C13.0527 7.25979 13 7.13261 13 7C13 6.86739 13.0527 6.74021 13.1465 6.64644C13.2402 6.55266 13.3674 6.49998 13.5 6.49998C13.6326 6.49998 13.7598 6.55266 13.8536 6.64644L16 8.79294L18.1465 6.64644C18.1929 6.6 18.248 6.56317 18.3087 6.53805C18.3693 6.51292 18.4344 6.49998 18.5 6.49998C18.5657 6.49998 18.6307 6.51292 18.6914 6.53805C18.752 6.56317 18.8072 6.6 18.8536 6.64644C18.9 6.69287 18.9368 6.74799 18.962 6.80865C18.9871 6.86932 19 6.93434 19 7C19 7.06566 18.9871 7.13068 18.962 7.19134C18.9368 7.25201 18.9 7.30713 18.8536 7.35356L16.3536 9.85356C16.3072 9.90006 16.2521 9.93693 16.1914 9.96206C16.1307 9.98719 16.0657 10.0001 16 10Z" fill="white"/>
<path d="M3.99141 11.2992C3.87003 11.2993 3.75276 11.2552 3.66148 11.1752C3.5702 11.0951 3.51115 10.9846 3.49535 10.8643C3.47954 10.7439 3.50806 10.6219 3.57557 10.5211C3.64309 10.4202 3.745 10.3473 3.86229 10.3161L5.42841 9.89643L5.00873 8.33037C4.99173 8.26694 4.9874 8.20079 4.99597 8.13569C5.00454 8.07059 5.02585 8.00782 5.05868 7.95096C5.09151 7.89409 5.13522 7.84425 5.18731 7.80428C5.23941 7.76431 5.29886 7.73499 5.36229 7.71799C5.42571 7.701 5.49186 7.69667 5.55696 7.70524C5.62206 7.71381 5.68484 7.73512 5.7417 7.76795C5.79856 7.80078 5.84841 7.84449 5.88838 7.89658C5.92835 7.94868 5.95767 8.00813 5.97466 8.07156L6.52373 10.1206C6.54074 10.1841 6.54509 10.2502 6.53653 10.3153C6.52797 10.3804 6.50666 10.4432 6.47383 10.5001C6.44099 10.557 6.39728 10.6068 6.34517 10.6468C6.29307 10.6868 6.2336 10.7161 6.17016 10.7331L4.12116 11.2821C4.07885 11.2935 4.03522 11.2992 3.99141 11.2992Z" fill="white"/>
<path d="M4.79043 12.9152C4.66909 12.9152 4.55189 12.8711 4.46068 12.7911C4.36946 12.711 4.31046 12.6006 4.29466 12.4803C4.27887 12.36 4.30736 12.238 4.37483 12.1372C4.4423 12.0363 4.54414 11.9634 4.66137 11.9321L7.59381 11.1464L6.80781 8.21437C6.79081 8.15095 6.78648 8.0848 6.79505 8.0197C6.80362 7.9546 6.82493 7.89182 6.85776 7.83496C6.89059 7.7781 6.9343 7.72825 6.9864 7.68828C7.03849 7.64831 7.09794 7.61899 7.16137 7.602C7.22479 7.585 7.29094 7.58067 7.35604 7.58924C7.42114 7.59781 7.48392 7.61912 7.54078 7.65195C7.59765 7.68478 7.64749 7.72849 7.68746 7.78059C7.72743 7.83268 7.75675 7.89214 7.77374 7.95556L8.68881 11.3706C8.70582 11.4341 8.71017 11.5002 8.70161 11.5653C8.69305 11.6304 8.67174 11.6932 8.63891 11.7501C8.60608 11.807 8.56236 11.8568 8.51026 11.8968C8.45815 11.9368 8.39868 11.9661 8.33524 11.9831L4.92018 12.8981C4.87786 12.9094 4.83424 12.9152 4.79043 12.9152Z" fill="white"/>
<path d="M6.95553 14.1652C6.83419 14.1652 6.71698 14.1211 6.62575 14.0411C6.53452 13.9611 6.47551 13.8506 6.4597 13.7303C6.4439 13.61 6.47239 13.488 6.53986 13.3872C6.60733 13.2863 6.70917 13.2134 6.82641 13.1821L9.75853 12.3964L8.97285 9.46437C8.95585 9.40095 8.95152 9.3348 8.96009 9.2697C8.96866 9.2046 8.98997 9.14182 9.0228 9.08496C9.05563 9.02809 9.09934 8.97825 9.15143 8.93828C9.20353 8.89831 9.26298 8.86899 9.32641 8.852C9.38983 8.835 9.45598 8.83067 9.52108 8.83924C9.58618 8.84781 9.64896 8.86912 9.70582 8.90195C9.76268 8.93478 9.81253 8.97849 9.8525 9.03059C9.89247 9.08268 9.92179 9.14214 9.93878 9.20556L10.8538 12.6206C10.8709 12.6841 10.8752 12.7502 10.8666 12.8153C10.8581 12.8804 10.8368 12.9432 10.8039 13.0001C10.7711 13.057 10.7274 13.1068 10.6753 13.1468C10.6232 13.1868 10.5637 13.2161 10.5003 13.2331L7.08522 14.1482C7.04292 14.1595 6.99932 14.1652 6.95553 14.1652Z" fill="white"/>
<path d="M5.49202 24.2992C5.41531 24.2992 5.33964 24.2815 5.27085 24.2475C5.20206 24.2136 5.14199 24.1643 5.09528 24.1035C5.04857 24.0426 5.01647 23.9719 5.00146 23.8966C4.98645 23.8214 4.98893 23.7437 5.00871 23.6696L5.42839 22.1036L3.86252 21.6839C3.73443 21.6496 3.62522 21.5658 3.55892 21.451C3.49262 21.3361 3.47466 21.1996 3.50899 21.0715C3.54332 20.9434 3.62712 20.8342 3.74197 20.7679C3.85682 20.7016 3.9933 20.6837 4.1214 20.718L6.1704 21.267C6.23383 21.284 6.2933 21.3133 6.34541 21.3533C6.39751 21.3933 6.44123 21.4431 6.47406 21.5C6.50689 21.5569 6.5282 21.6197 6.53676 21.6848C6.54532 21.7499 6.54097 21.8161 6.52396 21.8795L5.9749 23.9286C5.94642 24.0349 5.88366 24.1288 5.79636 24.1958C5.70905 24.2628 5.60208 24.2992 5.49202 24.2992Z" fill="white"/>
<path d="M7.29106 24.4152C7.21434 24.4152 7.13866 24.3975 7.06986 24.3636C7.00105 24.3297 6.94097 24.2804 6.89426 24.2195C6.84755 24.1587 6.81546 24.0879 6.80047 24.0126C6.78548 23.9374 6.78799 23.8597 6.80781 23.7856L7.59381 20.8536L4.66137 20.0679C4.53328 20.0336 4.42407 19.9498 4.35776 19.8349C4.29146 19.7201 4.27349 19.5836 4.30781 19.4555C4.34213 19.3274 4.42593 19.2182 4.54077 19.1519C4.65561 19.0856 4.79209 19.0676 4.92018 19.1019L8.33524 20.017C8.39868 20.034 8.45815 20.0633 8.51025 20.1033C8.56236 20.1433 8.60607 20.1931 8.63891 20.25C8.67174 20.3069 8.69305 20.3697 8.70161 20.4348C8.71017 20.4999 8.70582 20.5661 8.68881 20.6295L7.77374 24.0446C7.74528 24.1508 7.68255 24.2448 7.59528 24.3118C7.50801 24.3788 7.40108 24.4151 7.29106 24.4152Z" fill="white"/>
<path d="M9.45628 23.1652C9.37957 23.1652 9.30388 23.1475 9.23508 23.1136C9.16628 23.0797 9.1062 23.0304 9.05949 22.9695C9.01278 22.9087 8.98069 22.8379 8.96569 22.7626C8.9507 22.6874 8.95321 22.6097 8.97303 22.5356L9.75872 19.6036L6.82659 18.8179C6.6985 18.7836 6.58929 18.6998 6.52299 18.5849C6.45668 18.4701 6.43871 18.3336 6.47303 18.2055C6.50735 18.0774 6.59115 17.9682 6.70599 17.9019C6.82084 17.8356 6.95731 17.8176 7.08541 17.8519L10.5 18.767C10.5635 18.784 10.6229 18.8133 10.675 18.8533C10.7271 18.8933 10.7709 18.9431 10.8037 19C10.8365 19.0569 10.8578 19.1197 10.8664 19.1848C10.875 19.2499 10.8706 19.3161 10.8536 19.3795L9.93878 22.7944C9.91035 22.9007 9.84765 22.9946 9.76042 23.0617C9.67319 23.1287 9.56629 23.1651 9.45628 23.1652Z" fill="white"/>
<path d="M17.5 29.5C17.4343 29.5001 17.3693 29.4872 17.3086 29.4621C17.2479 29.4369 17.1928 29.4001 17.1464 29.3536L16 28.2071L14.8536 29.3536C14.8071 29.4 14.752 29.4368 14.6914 29.462C14.6307 29.4871 14.5657 29.5 14.5 29.5C14.4343 29.5 14.3693 29.4871 14.3087 29.462C14.248 29.4368 14.1929 29.4 14.1465 29.3536C14.1 29.3071 14.0632 29.252 14.0381 29.1913C14.0129 29.1307 14 29.0657 14 29C14 28.9343 14.0129 28.8693 14.0381 28.8087C14.0632 28.748 14.1 28.6929 14.1465 28.6464L15.6464 27.1464C15.6929 27.1 15.748 27.0632 15.8087 27.038C15.8693 27.0129 15.9343 27 16 27C16.0657 27 16.1307 27.0129 16.1914 27.038C16.252 27.0632 16.3071 27.1 16.3536 27.1464L17.8536 28.6464C17.9235 28.7164 17.9711 28.8055 17.9904 28.9025C18.0097 28.9994 17.9998 29.1 17.962 29.1913C17.9241 29.2827 17.86 29.3608 17.7778 29.4157C17.6956 29.4707 17.5989 29.5 17.5 29.5Z" fill="white"/>
<path d="M18.5 28C18.4343 28.0001 18.3693 27.9872 18.3086 27.9621C18.2479 27.9369 18.1928 27.9001 18.1464 27.8536L16 25.7071L13.8536 27.8536C13.8071 27.9 13.752 27.9368 13.6914 27.962C13.6307 27.9871 13.5657 28 13.5 28C13.4344 28 13.3693 27.9871 13.3087 27.962C13.248 27.9368 13.1929 27.9 13.1465 27.8536C13.1 27.8071 13.0632 27.752 13.0381 27.6913C13.0129 27.6307 13 27.5657 13 27.5C13 27.4343 13.0129 27.3693 13.0381 27.3087C13.0632 27.248 13.1 27.1929 13.1465 27.1464L15.6464 24.6464C15.6929 24.6 15.748 24.5632 15.8087 24.538C15.8693 24.5129 15.9343 24.5 16 24.5C16.0657 24.5 16.1307 24.5129 16.1914 24.538C16.252 24.5632 16.3071 24.6 16.3536 24.6464L18.8536 27.1464C18.9235 27.2164 18.9711 27.3055 18.9904 27.4024C19.0097 27.4994 18.9998 27.6 18.962 27.6913C18.9241 27.7827 18.86 27.8608 18.7778 27.9157C18.6956 27.9707 18.5989 28 18.5 28Z" fill="white"/>
<path d="M18.5001 25.5C18.4344 25.5001 18.3694 25.4872 18.3087 25.4621C18.248 25.4369 18.1929 25.4001 18.1465 25.3536L16.0001 23.2071L13.8536 25.3536C13.7599 25.4473 13.6327 25.5 13.5001 25.5C13.3675 25.5 13.2403 25.4473 13.1465 25.3536C13.0527 25.2598 13.0001 25.1326 13.0001 25C13.0001 24.8674 13.0527 24.7402 13.1465 24.6464L15.6465 22.1464C15.6929 22.1 15.7481 22.0632 15.8087 22.038C15.8694 22.0129 15.9344 22 16.0001 22C16.0657 22 16.1308 22.0129 16.1914 22.038C16.2521 22.0632 16.3072 22.1 16.3536 22.1464L18.8536 24.6464C18.9236 24.7164 18.9712 24.8055 18.9905 24.9024C19.0098 24.9994 18.9999 25.1 18.962 25.1913C18.9242 25.2827 18.8601 25.3608 18.7779 25.4157C18.6956 25.4707 18.599 25.5 18.5001 25.5Z" fill="white"/>
<path d="M26.508 24.2992C26.398 24.2991 26.2911 24.2627 26.2038 24.1957C26.1166 24.1287 26.0539 24.0347 26.0254 23.9284L25.4764 21.8794C25.4593 21.8159 25.455 21.7498 25.4636 21.6847C25.4721 21.6195 25.4934 21.5568 25.5263 21.4999C25.5591 21.443 25.6028 21.3931 25.6549 21.3532C25.707 21.3132 25.7665 21.2839 25.8299 21.2669L27.8789 20.7179C27.9423 20.7009 28.0085 20.6965 28.0736 20.7051C28.1387 20.7137 28.2015 20.735 28.2583 20.7678C28.3152 20.8006 28.3651 20.8443 28.405 20.8964C28.445 20.9485 28.4743 21.008 28.4913 21.0714C28.5083 21.1348 28.5127 21.201 28.5041 21.2661C28.4955 21.3312 28.4742 21.394 28.4414 21.4508C28.4086 21.5077 28.3649 21.5575 28.3128 21.5975C28.2607 21.6375 28.2012 21.6668 28.1378 21.6838L26.5717 22.1034L26.9914 23.6695C27.0111 23.7436 27.0136 23.8213 26.9986 23.8965C26.9836 23.9717 26.9515 24.0425 26.9048 24.1033C26.8581 24.1642 26.798 24.2135 26.7292 24.2474C26.6604 24.2813 26.5848 24.299 26.508 24.299V24.2992Z" fill="white"/>
<path d="M24.7091 24.4152C24.599 24.4151 24.4921 24.3788 24.4048 24.3117C24.3175 24.2447 24.2548 24.1507 24.2264 24.0444L23.3113 20.6294C23.2943 20.5659 23.29 20.4998 23.2985 20.4347C23.3071 20.3696 23.3284 20.3068 23.3612 20.2499C23.3941 20.193 23.4378 20.1432 23.4899 20.1032C23.542 20.0632 23.6014 20.0339 23.6649 20.0169L27.0799 19.1018C27.208 19.0675 27.3445 19.0855 27.4593 19.1518C27.5742 19.2181 27.658 19.3273 27.6923 19.4554C27.7266 19.5835 27.7087 19.7199 27.6424 19.8348C27.5761 19.9496 27.4668 20.0334 27.3387 20.0678L24.4066 20.8534L25.1923 23.7855C25.2121 23.8596 25.2146 23.9373 25.1997 24.0125C25.1847 24.0878 25.1526 24.1585 25.1059 24.2194C25.0591 24.2802 24.9991 24.3295 24.9303 24.3635C24.8615 24.3974 24.7858 24.4151 24.7091 24.4151V24.4152Z" fill="white"/>
<path d="M22.5438 23.1652C22.4337 23.1651 22.3268 23.1287 22.2395 23.0617C22.1523 22.9947 22.0895 22.9007 22.0611 22.7944L21.1462 19.3794C21.1292 19.3159 21.1249 19.2498 21.1334 19.1847C21.142 19.1196 21.1633 19.0568 21.1961 18.9999C21.229 18.943 21.2727 18.8932 21.3248 18.8532C21.3769 18.8132 21.4363 18.7839 21.4998 18.7669L24.9148 17.8518C25.0429 17.8175 25.1794 17.8355 25.2943 17.9018C25.4091 17.9681 25.4929 18.0773 25.5272 18.2054C25.5615 18.3335 25.5436 18.4699 25.4773 18.5848C25.411 18.6996 25.3017 18.7834 25.1737 18.8178L22.2415 19.6034L23.0272 22.5355C23.047 22.6096 23.0495 22.6873 23.0346 22.7625C23.0196 22.8378 22.9875 22.9085 22.9408 22.9694C22.894 23.0302 22.834 23.0795 22.7652 23.1135C22.6964 23.1474 22.6207 23.1651 22.544 23.1651L22.5438 23.1652Z" fill="white"/>
<path d="M28.0087 11.2992C27.9649 11.2992 27.9212 11.2934 27.8789 11.282L25.8299 10.733C25.7665 10.716 25.707 10.6867 25.6549 10.6467C25.6028 10.6067 25.5591 10.5569 25.5263 10.5C25.4934 10.4431 25.4721 10.3803 25.4636 10.3152C25.455 10.2501 25.4593 10.1839 25.4764 10.1205L26.0254 8.07144C26.0424 8.00801 26.0717 7.94855 26.1117 7.89646C26.1517 7.84437 26.2015 7.80066 26.2584 7.76783C26.3152 7.735 26.378 7.71369 26.4431 7.70511C26.5082 7.69654 26.5744 7.70088 26.6378 7.71787C26.7012 7.73487 26.7607 7.76419 26.8128 7.80416C26.8649 7.84413 26.9086 7.89397 26.9414 7.95083C26.9742 8.0077 26.9955 8.07047 27.0041 8.13557C27.0127 8.20067 27.0084 8.26682 26.9914 8.33025L26.5717 9.89631L28.1378 10.3159C28.2551 10.3472 28.357 10.4201 28.4245 10.521C28.492 10.6218 28.5205 10.7438 28.5047 10.8642C28.4889 10.9845 28.4299 11.095 28.3386 11.175C28.2473 11.2551 28.1301 11.2991 28.0087 11.2991V11.2992Z" fill="white"/>
<path d="M27.2097 12.9152C27.1659 12.9152 27.1223 12.9094 27.0799 12.8981L23.6649 11.983C23.6014 11.966 23.542 11.9367 23.4899 11.8967C23.4378 11.8567 23.3941 11.8069 23.3612 11.75C23.3284 11.6931 23.3071 11.6303 23.2985 11.5652C23.29 11.5001 23.2943 11.4339 23.3113 11.3705L24.2264 7.95544C24.2434 7.89201 24.2727 7.83256 24.3127 7.78046C24.3526 7.72837 24.4025 7.68466 24.4593 7.65183C24.5162 7.619 24.579 7.59769 24.6441 7.58912C24.7092 7.58055 24.7753 7.58488 24.8388 7.60187C24.9022 7.61887 24.9616 7.64819 25.0137 7.68816C25.0658 7.72813 25.1095 7.77797 25.1424 7.83484C25.1752 7.8917 25.1965 7.95448 25.2051 8.01958C25.2136 8.08467 25.2093 8.15083 25.1923 8.21425L24.4066 11.1463L27.3388 11.932C27.456 11.9633 27.5578 12.0362 27.6253 12.137C27.6928 12.2379 27.7213 12.3598 27.7055 12.4801C27.6897 12.6005 27.6307 12.7109 27.5394 12.7909C27.4482 12.871 27.331 12.9151 27.2097 12.9151V12.9152Z" fill="white"/>
<path d="M25.0445 14.1652C25.0007 14.1652 24.9571 14.1594 24.9148 14.1481L21.5 13.233C21.4366 13.216 21.3771 13.1867 21.325 13.1467C21.2729 13.1067 21.2292 13.0569 21.1964 13C21.1635 12.9431 21.1422 12.8803 21.1337 12.8152C21.1251 12.7501 21.1294 12.6839 21.1465 12.6205L22.0615 9.20544C22.0785 9.14201 22.1078 9.08256 22.1478 9.03046C22.1878 8.97837 22.2376 8.93466 22.2945 8.90183C22.3514 8.869 22.4141 8.84769 22.4792 8.83912C22.5443 8.83055 22.6105 8.83488 22.6739 8.85188C22.7373 8.86887 22.7968 8.89819 22.8489 8.93816C22.901 8.97813 22.9447 9.02797 22.9775 9.08484C23.0103 9.1417 23.0316 9.20448 23.0402 9.26958C23.0488 9.33467 23.0445 9.40083 23.0275 9.46425L22.2418 12.3963L25.1739 13.182C25.2911 13.2133 25.393 13.2862 25.4604 13.3871C25.5279 13.4879 25.5564 13.6099 25.5406 13.7302C25.5248 13.8505 25.4658 13.9609 25.3746 14.041C25.2833 14.121 25.1661 14.1651 25.0448 14.1651L25.0445 14.1652Z" fill="white"/>
<path d="M29.5 16L26.5 15L25.25 15.5H21.5V16.5H25.25L26.5 17L29.5 16Z" fill="#EBF7FF"/>
<path d="M22.75 4.30869L20.384 6.40675L20.192 7.73925L18.317 10.9869L19.183 11.4869L21.058 8.23925L22.116 7.40675L22.75 4.30869Z" fill="#EBF7FF"/>
<path d="M9.25 4.30869L9.884 7.40675L10.942 8.23925L12.817 11.4869L13.683 10.9869L11.808 7.73925L11.616 6.40675L9.25 4.30869Z" fill="#EBF7FF"/>
<path d="M28.8074 22.817L20.3971 17.9613V14.0387L28.8074 9.183C28.8647 9.15041 28.915 9.1068 28.9554 9.05469C28.9958 9.00257 29.0255 8.94298 29.0428 8.87935C29.0601 8.81571 29.0646 8.74928 29.0561 8.68389C29.0476 8.6185 29.0262 8.55544 28.9933 8.49834C28.9603 8.44123 28.9164 8.39121 28.864 8.35116C28.8116 8.3111 28.7518 8.28181 28.6881 8.26495C28.6243 8.2481 28.5578 8.24402 28.4925 8.25295C28.4272 8.26188 28.3643 8.28365 28.3074 8.317L19.8971 13.1726L16.5 11.2113V1.5C16.5 1.36739 16.4473 1.24021 16.3536 1.14645C16.2598 1.05268 16.1326 1 16 1C15.8674 1 15.7402 1.05268 15.6465 1.14645C15.5527 1.24021 15.5 1.36739 15.5 1.5V11.2113L12.1029 13.1726L3.69263 8.317C3.63575 8.28365 3.57283 8.26188 3.50749 8.25295C3.44216 8.24402 3.37571 8.2481 3.31196 8.26495C3.24821 8.28181 3.18842 8.3111 3.13604 8.35116C3.08366 8.39121 3.03972 8.44123 3.00675 8.49834C2.97378 8.55544 2.95243 8.6185 2.94393 8.68389C2.93543 8.74928 2.93995 8.81571 2.95723 8.87935C2.9745 8.94298 3.0042 9.00257 3.0446 9.05469C3.085 9.1068 3.13531 9.15041 3.19263 9.183L11.6029 14.0387V17.9613L3.19263 22.817C3.13531 22.8496 3.085 22.8932 3.0446 22.9453C3.0042 22.9974 2.9745 23.057 2.95723 23.1207C2.93995 23.1843 2.93543 23.2507 2.94393 23.3161C2.95243 23.3815 2.97378 23.4446 3.00675 23.5017C3.03972 23.5588 3.08366 23.6088 3.13604 23.6488C3.18842 23.6889 3.24821 23.7182 3.31196 23.7351C3.37571 23.7519 3.44216 23.756 3.50749 23.747C3.57283 23.7381 3.63575 23.7163 3.69263 23.683L12.1029 18.8274L15.5 20.7887V30.5C15.5 30.6326 15.5527 30.7598 15.6465 30.8536C15.7402 30.9473 15.8674 31 16 31C16.1326 31 16.2598 30.9473 16.3536 30.8536C16.4473 30.7598 16.5 30.6326 16.5 30.5V20.7887L19.8971 18.8274L28.3074 23.683C28.3643 23.7163 28.4272 23.7381 28.4925 23.747C28.5578 23.756 28.6243 23.7519 28.6881 23.7351C28.7518 23.7182 28.8116 23.6889 28.864 23.6488C28.9164 23.6088 28.9603 23.5588 28.9933 23.5017C29.0262 23.4446 29.0476 23.3815 29.0561 23.3161C29.0646 23.2507 29.0601 23.1843 29.0428 23.1207C29.0255 23.057 28.9958 22.9974 28.9554 22.9453C28.915 22.8932 28.8647 22.8496 28.8074 22.817ZM19.3971 17.384L18.3709 16.7914C18.543 16.2779 18.543 15.7221 18.3709 15.2086L19.3971 14.616V17.384ZM16 17.5C15.7033 17.5 15.4133 17.412 15.1667 17.2472C14.92 17.0824 14.7277 16.8481 14.6142 16.574C14.5007 16.2999 14.471 15.9983 14.5288 15.7074C14.5867 15.4164 14.7296 15.1491 14.9393 14.9393C15.1491 14.7296 15.4164 14.5867 15.7074 14.5288C15.9983 14.4709 16.2999 14.5006 16.574 14.6142C16.8481 14.7277 17.0824 14.92 17.2472 15.1666C17.412 15.4133 17.5 15.7033 17.5 16C17.4995 16.3977 17.3414 16.7789 17.0602 17.0601C16.7789 17.3414 16.3977 17.4995 16 17.5ZM18.8971 13.75L17.8698 14.3431C17.5111 13.9375 17.0304 13.6593 16.5 13.5503V12.3661L18.8971 13.75ZM15.5 12.3661V13.5503C14.9696 13.6593 14.4889 13.9375 14.1302 14.3431L13.1029 13.75L15.5 12.3661ZM12.6029 14.6161L13.6291 15.2086C13.457 15.7222 13.457 16.2779 13.6291 16.7915L12.6029 17.3841V14.6161ZM13.1029 18.2501L14.1302 17.6569C14.4889 18.0627 14.9696 18.341 15.5 18.45V19.6343L13.1029 18.2501ZM16.5 19.6339V18.45C17.0304 18.3411 17.5111 18.0628 17.8698 17.6572L18.8971 18.25L16.5 19.6339Z" fill="#EBF7FF"/>
</svg>
